<?xml version="1.0" encoding="utf-8"?>
<svg viewBox="0 0 1024 1024"
     version="1.1"
     xmlns="http://www.w3.org/2000/svg"
     xmlns:xlink="http://www.w3.org/1999/xlink">

  <defs>
    <!-- Overall background -->
    <radialGradient id="bgGradient" cx="50%" cy="30%" r="75%">
      <stop offset="0%"   stop-color="#151927"/>
      <stop offset="45%"  stop-color="#050814"/>
      <stop offset="100%" stop-color="#000000"/>
    </radialGradient>

    <!-- Circular badge rim -->
    <radialGradient id="rimGradient" cx="50%" cy="30%" r="60%">
      <stop offset="0%"   stop-color="#fce9b0"/>
      <stop offset="30%"  stop-color="#fedd5a"/>
      <stop offset="65%"  stop-color="#c47b18"/>
      <stop offset="100%" stop-color="#3b2104"/>
    </radialGradient>

    <!-- Inner badge background (sky) -->
    <linearGradient id="skyGradient" x1="0%" y1="0%" x2="0%" y2="100%">
      <stop offset="0%"   stop-color="#203b64"/>
      <stop offset="40%"  stop-color="#102841"/>
      <stop offset="100%" stop-color="#050915"/>
    </linearGradient>

    <!-- Sun glow -->
    <radialGradient id="sunGradient" cx="50%" cy="30%" r="45%">
      <stop offset="0%"   stop-color="#ffe9a8"/>
      <stop offset="40%"  stop-color="#fbb63c"/>
      <stop offset="100%" stop-color="#9a3c0b"/>
    </radialGradient>

    <!-- Mountain main -->
    <linearGradient id="mountainMain" x1="0%" y1="0%" x2="0%" y2="100%">
      <stop offset="0%"   stop-color="#d5e6f5"/>
      <stop offset="35%"  stop-color="#8fa4c4"/>
      <stop offset="70%"  stop-color="#2a3d59"/>
      <stop offset="100%" stop-color="#111827"/>
    </linearGradient>

    <!-- Mountain shadow -->
    <linearGradient id="mountainShadow" x1="0%" y1="0%" x2="100%" y2="100%">
      <stop offset="0%"   stop-color="#0b1320"/>
      <stop offset="50%"  stop-color="#111c2d"/>
      <stop offset="100%" stop-color="#02060c"/>
    </linearGradient>

    <!-- Ground -->
    <linearGradient id="groundGradient" x1="0%" y1="0%" x2="0%" y2="100%">
      <stop offset="0%"   stop-color="#3b2a1b"/>
      <stop offset="50%"  stop-color="#20150e"/>
      <stop offset="100%" stop-color="#0b0503"/>
    </linearGradient>

    <!-- Title band gold -->
    <linearGradient id="bandGold" x1="0%" y1="0%" x2="0%" y2="100%">
      <stop offset="0%"   stop-color="#ffe9b3"/>
      <stop offset="30%"  stop-color="#fedd5a"/>
      <stop offset="100%" stop-color="#c4891c"/>
    </linearGradient>

    <!-- Title band highlight strip -->
    <linearGradient id="bandHighlight" x1="0%" y1="0%" x2="0%" y2="100%">
      <stop offset="0%"   stop-color="rgba(255,255,255,0.8)"/>
      <stop offset="100%" stop-color="rgba(255,255,255,0)"/>
    </linearGradient>

    <!-- Text gold -->
    <linearGradient id="textGold" x1="0%" y1="0%" x2="0%" y2="100%">
      <stop offset="0%"   stop-color="#fff4cf"/>
      <stop offset="40%"  stop-color="#ffe08a"/>
      <stop offset="100%" stop-color="#c88012"/>
    </linearGradient>

    <!-- Outer drop shadow -->
    <filter id="outerShadow" x="-30%" y="-30%" width="160%" height="160%">
      <feDropShadow dx="0" dy="18" stdDeviation="25"
                    flood-color="#000000" flood-opacity="0.8"/>
    </filter>

    <!-- Inner soft glow -->
    <filter id="innerGlow">
      <feGaussianBlur in="SourceGraphic" stdDeviation="6" result="blur"/>
      <feColorMatrix in="blur" type="matrix"
                     values="1 0 0 0 0
                             0 1 0 0 0
                             0 0 1 0 0
                             0 0 0 0.8 0" result="glow"/>
      <feBlend in="SourceGraphic" in2="glow" mode="normal"/>
    </filter>

    <!-- Text shadow -->
    <filter id="textShadow" x="-30%" y="-30%" width="160%" height="160%">
      <feDropShadow dx="0" dy="6" stdDeviation="6"
                    flood-color="#000000" flood-opacity="0.9"/>
    </filter>
  </defs>

  <!-- Background -->
  <rect x="0" y="0" width="1024" height="1024" fill="url(#bgGradient)"/>

  <!-- Badge group -->
  <g filter="url(#outerShadow)" transform="translate(512, 480)">
    <!-- Outer rim -->
    <circle r="330" fill="url(#rimGradient)" />

    <!-- Inner sky circle -->
    <circle r="290" fill="url(#skyGradient)" stroke="#0a0f1b" stroke-width="6" />

    <!-- Sun -->
    <circle r="150" cy="-60" fill="url(#sunGradient)" filter="url(#innerGlow)" />

    <!-- Ground / horizon -->
    <path d="
      M -300,70
      Q -220,40 -160,30
      Q -60,10   0, 10
      Q  80,10  180,30
      Q 260,40  300,80
      L 300,320
      L -300,320
      Z"
      fill="url(#groundGradient)" />

    <!-- Back shadow mountain (right, darker) -->
    <path d="
      M -40,20
      L 150,-140
      L 260,40
      L 220,40
      L 165,-10
      L 70,60
      Z"
      fill="url(#mountainShadow)" />

    <!-- Main left mountain -->
    <path d="
      M -260,80
      L -60,-200
      L  90,40
      L  20,30
      L -30,-40
      L -110,40
      L -170,70
      Z"
      fill="url(#mountainMain)" stroke="#101623" stroke-width="3" />

    <!-- Small peaks and snow caps -->
    <!-- Snow cap main -->
    <path d="
      M -60,-200
      L -30,-150
      L -10,-160
      L 30,-120
      L 20,-90
      L -15,-120
      L -40,-100
      L -70,-120
      L -90,-90
      L -110,-110
      Z"
      fill="#f7fbff" opacity="0.95" />

    <!-- Right small peak -->
    <path d="
      M 40,-40
      L 100,-110
      L 155,-50
      L 130,-50
      L 100,-80
      L 70,-45
      Z"
      fill="#d7e4f5" opacity="0.95" />

    <!-- Foreground silhouette (dark) -->
    <path d="
      M -310,110
      Q -240,80  -190,85
      Q -140,90  -100,80
      Q -40,70    10,78
      Q  60,85   110,95
      Q 160,105  210,100
      Q 260,95   310,120
      L 310,320
      L -310,320
      Z"
      fill="#05070c" opacity="0.9" />

    <!-- Light fog / atmosphere strip -->
    <path d="
      M -280,35
      Q -180,15  -80,10
      Q 20,5     120,10
      Q 220,15   280,35
      L 280,65
      Q 220,40   120,30
      Q 20,20    -80,25
      Q -180,30  -280,55
      Z"
      fill="#ffffff" opacity="0.12" />
  </g>

  <!-- Title band -->
  <g transform="translate(512, 760)">
    <!-- Band base (dark shadow) -->
    <path d="
      M -380,-40
      Q -360,-80  -260,-100
      L 260,-100
      Q 360,-80   380,-40
      L 380,60
      Q 360,100  260,120
      L -260,120
      Q -360,100 -380,60
      Z"
      fill="#020203" opacity="0.9"/>

    <!-- Main gold band -->
    <path d="
      M -360,-30
      Q -340,-70 -250,-85
      L 250,-85
      Q 340,-70  360,-30
      L 360,45
      Q 340,85  250,100
      L -250,100
      Q -340,85 -360,45
      Z"
      fill="url(#bandGold)" stroke="#3b2104" stroke-width="5" />

    <!-- Top highlight on band -->
    <path d="
      M -340,-18
      Q -320,-52 -240,-65
      L 240,-65
      Q 320,-52  340,-18
      L 340,-5
      Q 320,-34  240,-45
      L -240,-45
      Q -320,-34 -340,-5
      Z"
      fill="#ffffff" opacity="0.16" />
  </g>

  <!-- Text with 3D effect -->
  <!-- Shadow text -->
  <g filter="url(#textShadow)" transform="translate(512, 760)">
    <text x="0" y="20"
          text-anchor="middle"
          style="fill:#000000;opacity:0.9;
                 font-family:Cinzel, 'Times New Roman', serif;
                 font-size:110px;letter-spacing:12px;">
      NORT-SUN
    </text>
  </g>

  <!-- Main text -->
  <g transform="translate(512, 760)">
    <text x="0" y="8"
          text-anchor="middle"
          style="fill:url(#textGold);
                 stroke:#2a1504;stroke-width:3;paint-order:stroke fill;
                 font-family:Cinzel, 'Times New Roman', serif;
                 font-size:110px;letter-spacing:12px;">
      NORT-SUN
    </text>
  </g>

</svg>

